<svg width="50" height="50" viewBox="0 0 50 50" fill="none" xmlns="http://www.w3.org/2000/svg">
<path d="M49 25C49 38.2548 38.2548 49 25 49C11.7452 49 1 38.2548 1 25C1 11.7452 11.7452 1 25 1C38.2548 1 49 11.7452 49 25Z" stroke="white" stroke-width="2"/>
<path d="M28.0735 25.2053L25.3918 27.2551C25.1776 27.4149 24.8653 27.4149 24.6572 27.2551L21.9755 25.2108L11.0225 33.5423H38.9776L28.0735 25.2053Z" fill="white"/>
<path d="M10 16.0804V32.9196L21.0265 24.5L10 16.0804Z" fill="white"/>
<path d="M11.0225 15.4578L25 26.131L38.9776 15.4578H11.0225Z" fill="white"/>
<path d="M28.9736 24.5L40.0002 32.9196V16.0804L28.9736 24.5Z" fill="white"/>
</svg>
