<svg width="50" height="50" viewBox="0 0 50 50" fill="none" xmlns="http://www.w3.org/2000/svg">
<path d="M49 25C49 38.2548 38.2548 49 25 49C11.7452 49 1 38.2548 1 25C1 11.7452 11.7452 1 25 1C38.2548 1 49 11.7452 49 25Z" stroke="#E84545" stroke-width="2"/>
<path d="M11.4394 24.4583L35.5436 15.1645C36.6623 14.7604 37.6394 15.4374 37.2769 17.1291L37.279 17.127L33.1748 36.4624C32.8706 37.8333 32.0561 38.1666 30.9165 37.5208L24.6665 32.9145L21.6519 35.8187C21.3186 36.152 21.0373 36.4333 20.3915 36.4333L20.8352 30.0729L32.4186 19.6083C32.9227 19.1645 32.3061 18.9145 31.6415 19.3562L17.3269 28.3687L11.1561 26.4437C9.81648 26.0187 9.78731 25.1041 11.4394 24.4583Z" fill="white"/>
</svg>
